<?xml version="1.0" encoding="UTF-8" standalone="no"?>
<svg
   xml:space="preserve"
   width="48"
   height="48"
   viewBox="0 0 7.62 7.62"
   version="1.1"
   id="svg20"
   sodipodi:docname="bigcomecome.svg"
   inkscape:export-filename="bigcommunity2.svg"
   inkscape:export-xdpi="96"
   inkscape:export-ydpi="96"
   inkscape:version="1.4 (e7c3feb100, 2024-10-09)"
   xmlns:inkscape="http://www.inkscape.org/namespaces/inkscape"
   xmlns:sodipodi="http://sodipodi.sourceforge.net/DTD/sodipodi-0.dtd"
   xmlns="http://www.w3.org/2000/svg"
   xmlns:svg="http://www.w3.org/2000/svg"><sodipodi:namedview
     id="namedview20"
     pagecolor="#ffffff"
     bordercolor="#000000"
     borderopacity="0.25"
     inkscape:showpageshadow="2"
     inkscape:pageopacity="0.0"
     inkscape:pagecheckerboard="0"
     inkscape:deskcolor="#d1d1d1"
     inkscape:zoom="9.5506409"
     inkscape:cx="0.62823009"
     inkscape:cy="26.438016"
     inkscape:window-width="1920"
     inkscape:window-height="1016"
     inkscape:window-x="0"
     inkscape:window-y="0"
     inkscape:window-maximized="1"
     inkscape:current-layer="svg20" /><defs
     id="defs8"><radialGradient
       id="a"
       cx="0"
       cy="0"
       r="1"
       fx="0"
       fy="0"
       gradientTransform="matrix(-0.02072499,5.820833,-5.820833,-0.02072499,2.9208275,0.00690125)"
       gradientUnits="userSpaceOnUse"
       spreadMethod="pad"><stop
         offset="0"
         style="stop-opacity:1;stop-color:#002a43"
         id="stop7" /><stop
         offset="1"
         style="stop-opacity:1;stop-color:#2c2d3d"
         id="stop8" /></radialGradient><style
       id="style1">.cls-1{fill:#fff;}</style></defs><g
     id="g1"
     transform="matrix(1.3091131,0,0,1.3094,-5.6598916e-4,-2.8317653e-4)"><ellipse
       style="opacity:1;fill:#ffdd57;fill-opacity:1;stroke:none;stroke-width:0.272787;stroke-miterlimit:2"
       id="path4"
       cx="2.911499"
       cy="2.9102955"
       rx="2.909668"
       ry="2.9093802" /><g
       id="g21"
       transform="matrix(0.01556305,0,0,0.01556134,0.01708298,0.01588625)"
       style="fill:#000000"
       inkscape:export-filename="g21.png"
       inkscape:export-xdpi="1490.5295"
       inkscape:export-ydpi="1490.5295"><path
         class="cls-1"
         d="m 200,15.8 c -102.7,0 -186,83.3 -186,186 0,102.7 83.3,186 186,186 102.7,0 186,-83.3 186,-186 0,-102.7 -83.28,-186 -186,-186 z m 140.5,141.1 c 0,0 -13.7,-3.4 -40.8,25.9 -27.1,29.3 -29.1,28 -29.1,28 0,0 -7.7,5.4 -8.6,-8.2 -0.9,-13.6 -3.8,-54.8 37.6,-77.1 36.6,-19.7 56.6,20.6 60.7,30.3 a 169.54,169.54 0 0 1 4.6,21.4 c -8.38,-18.8 -24.38,-20.3 -24.38,-20.3 z m -301.6,89 a 177.63,177.63 0 0 1 -4.3,-20.5 c 8.62,18.6 24.4,20.1 24.4,20.1 0,0 13.7,3.4 40.8,-25.9 27.1,-29.3 29.1,-28 29.1,-28 0,0 7.7,-5.4 8.6,8.2 0.9,13.6 3.8,54.8 -37.6,77.1 -37.48,20.2 -57.48,-22.8 -60.98,-31 z m 161,122.8 A 166.22,166.22 0 0 1 74.1,311.4 c 9,4.6 20.3,6.6 34.3,4.3 64.9,-10.8 62.1,-86.2 62.1,-86.2 0,0 0.1,-33.4 -31.2,-50.3 -25.9,-14.9 -40.8,1.2 -43.4,3.8 -2.6,2.6 -53.9,66.8 -47.08,-52.1 39.2,-83.5 138.6,-119.4 222,-80.2 A 166.84,166.84 0 0 1 324,90.2 c -8.8,-4.1 -19.5,-5.8 -32.8,-3.5 -64.9,10.8 -62.1,86.2 -62.1,86.2 0,0 -0.1,33.4 31.2,50.3 25.9,14.9 40.8,-1.2 43.4,-3.8 2.6,-2.6 54.5,-67.6 47,54 a 166.68,166.68 0 0 1 -150.8,95.3 z"
         transform="translate(-14.02,-15.8)"
         id="path1"
         style="fill:#000000" /><path
         class="cls-1"
         d="m 178.22,117.7 c 15.9,-3.4 30.8,3.5 33.3,15.4 2.5,11.9 -8.3,24.3 -24.1,27.7 -15.8,3.4 -30.8,-3.5 -33.3,-15.4 -2.5,-11.9 8.2,-24.3 24.1,-27.7 z"
         transform="translate(-14.02,-15.8)"
         id="path2"
         style="fill:#000000" /><path
         class="cls-1"
         d="m 216.22,187.1 a 22.464416,22.464416 0 1 0 -44.8,3.4 22.78,22.78 0 0 0 1,5.2 c 0,0 13.2,52 83.5,53.7 0,-0.1 -40.6,-29.1 -39.7,-62.3 z"
         transform="translate(-14.02,-15.8)"
         id="path3"
         style="fill:#000000" /></g><ellipse
       style="opacity:1;fill:none;fill-opacity:1;stroke:#ffdd57;stroke-width:0.350103;stroke-miterlimit:2;stroke-dasharray:none;stroke-opacity:1"
       id="ellipse1"
       cx="2.911499"
       cy="2.9102955"
       rx="2.7346165"
       ry="2.7343287" /></g></svg>
