<?xml version="1.0" encoding="UTF-8" standalone="no"?>
<!-- Created with Inkscape (http://www.inkscape.org/) -->

<svg
   width="70"
   height="70"
   version="1.1"
   viewBox="0 0 18.521 18.521"
   id="svg1"
   sodipodi:docname="logo.svg"
   inkscape:version="1.3.2 (091e20ef0f, 2023-11-25, custom)"
   xmlns:inkscape="http://www.inkscape.org/namespaces/inkscape"
   xmlns:sodipodi="http://sodipodi.sourceforge.net/DTD/sodipodi-0.dtd"
   xmlns="http://www.w3.org/2000/svg"
   xmlns:svg="http://www.w3.org/2000/svg">
  <defs
     id="defs1">
    <radialGradient
       id="paint0_radial_313_57"
       cx="0"
       cy="0"
       r="1"
       gradientUnits="userSpaceOnUse"
       gradientTransform="matrix(0,2.9104428,-2.9104428,0,18.256416,36.777415)">
      <stop
         stop-color="#1D4775"
         id="stop8" />
      <stop
         offset="1"
         stop-color="#002A43"
         id="stop9" />
    </radialGradient>
    <linearGradient
       id="paint1_linear_313_57"
       x1="4"
       y1="16"
       x2="20"
       y2="16"
       gradientUnits="userSpaceOnUse"
       gradientTransform="matrix(0.26458571,0,0,0.26458571,15.081387,36.512829)">
      <stop
         stop-color="#2D85C5"
         id="stop10" />
      <stop
         offset="1"
         stop-color="#0BB1CB"
         id="stop11" />
    </linearGradient>
  </defs>
  <sodipodi:namedview
     id="namedview1"
     pagecolor="#ffffff"
     bordercolor="#666666"
     borderopacity="1.0"
     inkscape:showpageshadow="2"
     inkscape:pageopacity="0.0"
     inkscape:pagecheckerboard="0"
     inkscape:deskcolor="#d1d1d1"
     inkscape:zoom="2.6217681"
     inkscape:cx="43.291396"
     inkscape:cy="37.188644"
     inkscape:window-width="1920"
     inkscape:window-height="1048"
     inkscape:window-x="0"
     inkscape:window-y="0"
     inkscape:window-maximized="1"
     inkscape:current-layer="svg1" />
  <g
     id="g1"
     transform="matrix(3.181815,0,0,3.181815,-48.828031,-117.01886)">
    <path
       fill-rule="evenodd"
       clip-rule="evenodd"
       d="m 17.620362,36.807469 c 0.03171,3.36e-4 0.06202,-0.0037 0.09092,-0.01212 0.379895,-0.02488 0.759734,-0.02388 1.139573,0.003 0.344411,0.02683 0.677816,0.101559 1.000187,0.224173 0.535945,0.220649 0.902687,0.603359 1.100174,1.14813 0.112952,0.327991 0.179627,0.665264 0.200053,1.011816 0.02823,0.435164 0.01812,0.869376 -0.03032,1.302635 -0.03625,0.304511 -0.115069,0.597355 -0.236408,0.878504 -0.225056,0.487499 -0.589761,0.823761 -1.094114,1.008786 -0.408706,0.138087 -0.828974,0.210795 -1.260831,0.218098 -0.485753,0.02527 -0.966629,-0.01109 -1.442661,-0.109036 -0.876197,-0.195185 -1.416693,-0.729384 -1.621485,-1.602543 -0.08691,-0.393069 -0.126308,-0.790926 -0.118203,-1.193573 -0.0097,-0.428152 0.03576,-0.850248 0.136388,-1.266278 0.214685,-0.816413 0.732953,-1.32232 1.554806,-1.517714 0.191505,-0.04682 0.385478,-0.07812 0.581917,-0.09391 z"
       fill="url(#paint0_radial_313_57)"
       id="path1-5"
       style="fill:url(#paint0_radial_313_57);stroke-width:0.264586" />
    <path
       fill-rule="evenodd"
       clip-rule="evenodd"
       d="m 17.607649,42.563851 c -0.174211,-0.01934 -0.34778,-0.04678 -0.52071,-0.08237 -0.378321,-0.0843 -0.694059,-0.231751 -0.947209,-0.44244 v -0.162959 c 0,-0.129911 0.04682,-0.241011 0.140458,-0.333351 0.09364,-0.09231 0.204096,-0.138485 0.331372,-0.138485 h 0.598528 c 0.06178,0 0.111448,0.0087 0.149019,0.02622 0.03754,0.01746 0.06796,0.04368 0.09126,0.07863 0.0932,0.13396 0.209703,0.23736 0.349502,0.310174 0.139807,0.07281 0.271968,0.109247 0.454532,0.109221 0.182432,-2.7e-5 0.31147,-0.03641 0.454187,-0.109221 0.142718,-0.07281 0.262126,-0.176214 0.35825,-0.310174 0.02037,-0.03495 0.04964,-0.06117 0.08776,-0.07863 0.03815,-0.01749 0.08607,-0.02622 0.143776,-0.02622 h 0.602885 c 0.129911,0 0.241011,0.04617 0.333351,0.138485 0.09231,0.09234 0.138484,0.20344 0.138484,0.333351 v 0.165895 c -0.167403,0.139199 -0.361636,0.249346 -0.58267,0.330442 -0.289272,0.09774 -0.584364,0.16272 -0.885225,0.194946 -2.6e-5,-7.41e-4 -2.6e-5,-0.0015 -2.6e-5,-0.0022 v -0.20037 c 0,-0.03852 -0.03993,-0.06424 -0.07565,-0.0498 -0.07829,0.03167 -0.158646,0.05795 -0.241091,0.07882 -0.109221,0.02767 -0.202329,0.04127 -0.33359,0.04151 -0.129673,2.38e-4 -0.220003,-0.0131 -0.329726,-0.03932 -0.08282,-0.01979 -0.163408,-0.04538 -0.241773,-0.07678 -0.03577,-0.01431 -0.07571,0.0114 -0.07571,0.04993 z m 0.64657,-2.225589 c -0.162138,0 -0.300966,-0.05789 -0.416457,-0.173647 -0.11555,-0.115783 -0.17332,-0.254902 -0.17332,-0.417358 0,-0.162297 0.05789,-0.300966 0.173664,-0.416008 0.115782,-0.115042 0.254875,-0.172563 0.417357,-0.172563 0.16227,0 0.30094,0.05781 0.415982,0.173436 0.115042,0.115624 0.172562,0.254426 0.172562,0.416352 0,0.162138 -0.05781,0.300966 -0.173435,0.416484 -0.115624,0.115545 -0.2544,0.173304 -0.416353,0.173304 z m -1.398004,0.646595 c -0.162141,0 -0.300969,-0.05789 -0.416479,-0.173674 -0.11554,-0.115783 -0.173312,-0.254876 -0.173312,-0.417358 0,-0.16227 0.05789,-0.30094 0.173661,-0.415982 0.115775,-0.115041 0.254891,-0.172562 0.417352,-0.172562 0.162286,0 0.300953,0.05781 0.415998,0.173436 0.115044,0.115624 0.172568,0.254399 0.172568,0.416352 0,0.162138 -0.05782,0.300966 -0.173442,0.416458 -0.115629,0.115544 -0.254409,0.17333 -0.416346,0.17333 z m 2.796022,0 c -0.162138,0 -0.300966,-0.05789 -0.416457,-0.173674 -0.115545,-0.115783 -0.173331,-0.254876 -0.173331,-0.417358 0,-0.16227 0.05789,-0.30094 0.173674,-0.415982 0.115783,-0.115041 0.254876,-0.172562 0.417358,-0.172562 0.16227,0 0.30094,0.05781 0.415982,0.173436 0.115042,0.115624 0.172562,0.254399 0.172562,0.416352 0,0.162138 -0.05781,0.300966 -0.173435,0.416458 -0.115624,0.115544 -0.2544,0.17333 -0.416353,0.17333 z m -1.655777,0.58103 c 0.08157,0.04371 0.167298,0.06554 0.257257,0.06554 0.09308,0 0.181241,-0.02183 0.26448,-0.06554 0.08324,-0.04368 0.151078,-0.101919 0.203492,-0.174733 0.0699,-0.104855 0.153645,-0.17841 0.251198,-0.220638 0.06091,-0.02635 0.126631,-0.04448 0.197169,-0.0544 0.04741,-0.0066 0.06813,-0.06469 0.02831,-0.09123 -0.09544,-0.06363 -0.21659,-0.119222 -0.363435,-0.166741 -0.207012,-0.06699 -0.400583,-0.10049 -0.580713,-0.10049 -0.177193,0 -0.368567,0.0335 -0.574137,0.10049 -0.145332,0.04736 -0.266224,0.102738 -0.362671,0.166106 -0.04031,0.02649 -0.01969,0.08549 0.02801,0.09258 0.06954,0.01032 0.134376,0.02895 0.194511,0.05588 0.09757,0.04368 0.182762,0.116497 0.255576,0.218441 0.05241,0.07281 0.119408,0.13105 0.200953,0.174733 z"
       fill="url(#paint1_linear_313_57)"
       id="path2"
       style="fill:url(#paint1_linear_313_57);stroke-width:0.264586" />
    <path
       d="m 17.99646,41.565887 c 0.08155,0.04371 0.167298,0.06554 0.25723,0.06554 0.09311,0 0.181268,-0.02183 0.264507,-0.06554 0.08324,-0.04368 0.151052,-0.101919 0.203492,-0.174733 0.0699,-0.104855 0.153645,-0.17841 0.251198,-0.220638 0.06091,-0.02635 0.126631,-0.04448 0.197169,-0.0544 0.04741,-0.0066 0.06813,-0.06469 0.02831,-0.09123 -0.09546,-0.06363 -0.21659,-0.119222 -0.363435,-0.166741 -0.207038,-0.06699 -0.400583,-0.10049 -0.580713,-0.10049 -0.177193,0 -0.368567,0.0335 -0.574143,0.10049 -0.145334,0.04736 -0.266223,0.102738 -0.362673,0.166106 -0.04031,0.02649 -0.01969,0.08549 0.02801,0.09258 0.06954,0.01032 0.134375,0.02895 0.19451,0.05588 0.09757,0.04368 0.182763,0.116497 0.255582,0.218441 0.05241,0.07281 0.119408,0.13105 0.200953,0.174733 z"
       fill="#2a91c9"
       id="path3"
       style="stroke-width:0.264586" />
    <path
       d="m 17.837735,40.164615 c 0.115518,0.115756 0.254346,0.173647 0.416484,0.173647 0.161953,0 0.300729,-0.05776 0.416353,-0.173304 0.115623,-0.115518 0.173435,-0.254346 0.173435,-0.416484 0,-0.161926 -0.05752,-0.300728 -0.172562,-0.416352 -0.115042,-0.115624 -0.253712,-0.173436 -0.416008,-0.173436 -0.162456,0 -0.301575,0.05752 -0.417331,0.172563 -0.115783,0.115042 -0.173669,0.253711 -0.173669,0.416008 0,0.162456 0.05777,0.301575 0.173298,0.417358 z"
       fill="#2a91c9"
       id="path4"
       style="stroke-width:0.264586" />
    <path
       d="m 18.913276,37.596043 c 0.109697,-0.08414 0.242916,-0.132023 0.381083,-0.137008 0.04434,0.0075 0.08975,0.0087 0.134489,0.01396 0.05048,0.01252 0.09832,0.034 0.141209,0.06344 0.06652,0.05559 0.120651,0.124514 0.158884,0.202323 0.05829,0.111375 0.08954,0.234908 0.0912,0.360599 -0.0026,0.04243 -0.0083,0.08461 -0.01712,0.126189 -0.01926,-0.03872 -0.03381,-0.0796 -0.04337,-0.121773 -0.02077,-0.05341 -0.04979,-0.103226 -0.08599,-0.147644 -0.05249,-0.06898 -0.12888,-0.115833 -0.214156,-0.131354 -0.03249,-0.0065 -0.06578,-0.0079 -0.09872,-0.0043 -0.09274,0.0085 -0.181029,0.04374 -0.25424,0.101347 -0.02442,0.02052 -0.05218,0.03911 -0.07268,0.06074 -0.02484,0.02677 -0.04826,0.05479 -0.07025,0.08396 -0.06464,0.08634 -0.109962,0.185572 -0.132875,0.290967 -0.0026,0.04288 -0.0094,0.08324 -0.01262,0.126491 0.0072,0.0304 -0.0055,0.06794 0.02241,0.08906 0.02103,0.005 0.04307,0.0031 0.06294,-0.0054 0.05342,-0.02756 0.103665,-0.06085 0.149888,-0.09929 0.05567,-0.03259 0.09869,-0.07963 0.15264,-0.1157 0.02961,-0.016 0.04961,-0.03726 0.08004,-0.05541 0.05498,-0.03928 0.114089,-0.07247 0.176267,-0.09895 0.0476,-0.01931 0.0998,-0.02432 0.150205,-0.01441 0.02974,0.0091 0.05728,0.02417 0.08104,0.04424 0.02373,0.02006 0.04318,0.04473 0.05712,0.0725 0.03908,0.08183 0.06213,0.170393 0.06787,0.260892 0.0027,0.04607 -0.0087,0.08975 -0.01072,0.13958 -0.03048,0.153325 -0.08334,0.301328 -0.156925,0.439252 -0.02614,0.0483 -0.05818,0.09318 -0.09544,0.133528 -0.0123,0.01072 -0.02119,0.02564 -0.03651,0.02715 0.0084,-0.02929 0.01855,-0.05802 0.03045,-0.08607 0.01082,-0.0318 0.01775,-0.06478 0.02064,-0.09824 0.01259,-0.0504 0.02122,-0.101712 0.02582,-0.153457 -0.0039,-0.05265 0.0035,-0.107504 -0.0049,-0.160458 -0.0022,-0.03825 -0.01003,-0.07597 -0.02312,-0.111981 -0.0054,-0.02323 -0.0159,-0.04496 -0.03083,-0.06356 -0.01773,-0.02079 -0.04122,-0.03585 -0.06752,-0.04329 -0.02074,7.38e-4 -0.04138,0.0035 -0.06159,0.0083 -0.04932,0.02271 -0.09496,0.0527 -0.135389,0.08896 -0.03559,0.02642 -0.07366,0.04933 -0.113666,0.06844 -0.05929,0.0307 -0.127848,0.03834 -0.192433,0.02144 -0.08755,-0.02538 -0.16825,-0.07013 -0.236143,-0.130946 -0.03225,-0.02833 -0.06099,-0.06042 -0.08562,-0.09559 -0.06014,-0.08869 -0.09033,-0.194293 -0.08612,-0.301363 -0.004,-0.03307 -5.82e-4,-0.06663 0.01013,-0.09818 0.02381,-0.127798 0.07625,-0.248547 0.15338,-0.353193 0.03802,-0.0485 0.08038,-0.09343 0.126578,-0.134224 0.01495,-0.0265 0.03747,-0.04796 0.06467,-0.06164 z"
       fill="#ffffff"
       id="path5"
       style="stroke-width:0.264586" />
    <path
       d="m 17.59021,39.159427 c -0.10948,0.08438 -0.242588,0.132452 -0.380728,0.137532 -0.04436,-0.0075 -0.08975,-0.0087 -0.134407,-0.01442 -0.05058,-0.01209 -0.09848,-0.03347 -0.141284,-0.063 -0.06624,-0.05625 -0.119807,-0.125874 -0.157185,-0.204313 -0.05785,-0.111388 -0.08909,-0.234664 -0.09129,-0.360154 0.0026,-0.04243 0.0083,-0.08461 0.01713,-0.126189 0.01952,0.0386 0.03409,0.07952 0.04337,0.121773 0.02064,0.05335 0.04951,0.103143 0.08555,0.147567 0.05173,0.06937 0.127496,0.116926 0.212457,0.133349 0.03251,0.0065 0.06586,0.0078 0.09878,0.0039 0.09274,-0.0082 0.181067,-0.04324 0.254153,-0.1009 0.02451,-0.02096 0.05182,-0.03689 0.07271,-0.06074 0.02491,-0.0267 0.04835,-0.05473 0.07023,-0.08396 0.06598,-0.08667 0.111962,-0.186869 0.134658,-0.293404 0.0035,-0.04502 0.01,-0.08361 0.01306,-0.126417 -0.0076,-0.03048 0.0051,-0.06802 -0.02286,-0.08913 -0.02103,-0.0048 -0.04302,-0.0029 -0.06293,0.0054 -0.05354,0.02757 -0.103842,0.06102 -0.149964,0.09973 -0.05514,0.03223 -0.09861,0.07918 -0.152576,0.115256 -0.0296,0.016 -0.04997,0.03948 -0.08002,0.05541 -0.05507,0.03917 -0.114166,0.07234 -0.176286,0.09895 -0.04761,0.01929 -0.0998,0.02429 -0.150202,0.01441 -0.02965,-0.0087 -0.05722,-0.02335 -0.08103,-0.04304 -0.02382,-0.01969 -0.04338,-0.04401 -0.05751,-0.07149 -0.03908,-0.08183 -0.06211,-0.170393 -0.06785,-0.260892 -0.0027,-0.04607 0.0087,-0.08975 0.01072,-0.139579 0.0307,-0.153714 0.08364,-0.302134 0.157143,-0.440583 0.02613,-0.04831 0.05819,-0.09317 0.09545,-0.133534 0.01229,-0.0107 0.0203,-0.02577 0.03605,-0.02723 -0.0084,0.02928 -0.0186,0.05803 -0.03045,0.08609 -0.01121,0.03184 -0.01832,0.06497 -0.02115,0.0986 -0.01258,0.0504 -0.02122,0.101712 -0.02582,0.153459 0.0035,0.05258 -0.0035,0.107501 0.004,0.160749 0.0024,0.03803 0.01005,0.07554 0.02275,0.111465 0.0057,0.02322 0.01636,0.04493 0.03126,0.06364 0.01776,0.02063 0.04135,0.03542 0.06766,0.0424 0.02078,-5.1e-4 0.04144,-0.0033 0.06161,-0.0083 0.04933,-0.02271 0.09496,-0.0527 0.13538,-0.08896 0.03551,-0.02617 0.0734,-0.04896 0.113166,-0.06807 0.05938,-0.03096 0.128155,-0.03873 0.192952,-0.02181 0.08761,0.0252 0.16835,0.06998 0.236132,0.130946 0.03225,0.02817 0.06104,0.06011 0.0857,0.09514 0.06072,0.08898 0.0916,0.194955 0.08819,0.302625 0.0038,0.03307 3.44e-4,0.06658 -0.01013,0.09818 -0.02484,0.128375 -0.07858,0.249407 -0.157164,0.353923 -0.03664,0.04894 -0.07773,0.09439 -0.122728,0.135786 -0.01666,0.0254 -0.03962,0.04605 -0.06664,0.05994 z"
       fill="#ffffff"
       id="path6"
       style="stroke-width:0.264586" />
    <path
       d="m 18.14013,37.58271 c 0.04739,-0.0089 0.09612,-0.0076 0.142956,0.0039 0.04683,0.01142 0.0907,0.03268 0.128694,0.06237 0.02657,0.02721 0.04604,0.06057 0.05662,0.0971 0.0053,0.02283 0.0053,0.04659 0,0.06942 -0.0053,0.02283 -0.0159,0.04412 -0.0308,0.06222 -0.03191,0.04146 -0.074,0.07394 -0.122186,0.09429 -0.04818,0.02035 -0.100833,0.02786 -0.152772,0.02181 -0.0485,-0.0022 -0.09565,-0.01656 -0.137108,-0.04177 -0.0259,-0.01523 -0.04818,-0.03597 -0.06519,-0.06074 -0.01704,-0.02477 -0.02842,-0.05298 -0.03336,-0.08263 -0.0022,-0.02213 3.97e-4,-0.04448 0.0075,-0.06553 0.0072,-0.02105 0.01876,-0.04034 0.03397,-0.05655 0.04257,-0.05445 0.103639,-0.09139 0.171637,-0.10384 z"
       fill="#ffffff"
       id="path7"
       style="stroke-width:0.264586" />
    <path
       d="m 18.056177,38.11952 c 0.024,-0.02757 0.05477,-0.04844 0.08927,-0.06055 0.0345,-0.0121 0.07154,-0.01503 0.107528,-0.0085 0.03678,0.0085 0.07152,0.02426 0.10213,0.04637 0.02262,0.01343 0.04172,0.03204 0.05575,0.0543 0.01402,0.02226 0.02254,0.04754 0.02487,0.07374 -0.01011,0.05959 -0.01402,0.120072 -0.01167,0.180469 0.01876,0.125027 0.0716,0.242477 0.152692,0.339471 0.03545,0.06024 0.0902,0.106393 0.125652,0.166634 -0.0681,-0.01351 -0.135097,-0.0321 -0.20045,-0.05562 -0.08033,-0.02716 -0.1551,-0.06864 -0.220664,-0.122418 -0.03829,-0.02805 -0.0726,-0.06113 -0.102051,-0.09835 -0.0489,-0.05425 -0.08824,-0.116386 -0.116391,-0.183773 -0.03458,-0.0776 -0.04958,-0.162498 -0.04368,-0.247248 0.0074,-0.03009 0.01992,-0.05869 0.03702,-0.08453 z"
       fill="#ffffff"
       id="path8"
       style="stroke-width:0.264586" />
  </g>
</svg>
